<svg width="32" height="32" xmlns="http://www.w3.org/2000/svg">

 <title/>
 <g>
  <title>background</title>
  <rect fill="none" id="canvas_background" height="402" width="582" y="-1" x="-1"/>
 </g>
 <g>
  <title>Layer 1</title>
  <rect stroke-width="NaN" stroke-linejoin="round" stroke="#a846a0" fill="none" id="svg_1" y="1" x="1" width="30" height="10" class="cls-1"/>
  <rect stroke-width="NaN" stroke-linejoin="round" stroke="#a846a0" fill="none" id="svg_2" y="11" x="1" width="30" height="10" class="cls-1"/>
  <rect stroke-width="NaN" stroke-linejoin="round" stroke="#a846a0" fill="none" id="svg_3" y="21" x="1" width="30" height="10" class="cls-1"/>
  <line stroke-width="NaN" stroke-linejoin="round" stroke="#a846a0" fill="none" id="svg_4" y2="6" y1="6" x2="4" x1="10" class="cls-1"/>
  <line stroke-width="NaN" stroke-linejoin="round" stroke="#a846a0" fill="none" id="svg_5" y2="16" y1="16" x2="23" x1="5" class="cls-1"/>
  <line stroke-width="2px" stroke-linejoin="round" stroke="#a846a0" fill="none" id="svg_6" y2="16" y1="16" x2="27" x1="25" class="cls-1"/>
  <line stroke-width="2px" stroke-linejoin="round" stroke="#a846a0" fill="none" id="svg_7" y2="26" y1="26" x2="27" x1="25" class="cls-1"/>
  <line stroke-width="2px" stroke-linejoin="round" stroke="#a846a0" fill="none" id="svg_8" y2="26" y1="26" x2="23" x1="21" class="cls-1"/>
  <line stroke-width="2px" stroke-linejoin="round" stroke="#a846a0" fill="none" id="svg_9" y2="26" y1="26" x2="19" x1="17" class="cls-1"/>
  <line stroke-width="NaN" stroke-linejoin="round" stroke="#a846a0" fill="none" id="svg_10" y2="26" y1="26" x2="15" x1="5" class="cls-1"/>
  <line stroke-width="2px" stroke-linejoin="round" stroke="#a846a0" fill="none" id="svg_11" y2="6" y1="6" x2="14" x1="12" class="cls-1"/>
  <line stroke-width="2px" stroke-linejoin="round" stroke="#a846a0" fill="none" id="svg_12" y2="6" y1="6" x2="18" x1="16" class="cls-1"/>
  <line stroke-width="2px" stroke-linejoin="round" stroke="#a846a0" fill="none" id="svg_13" y2="6" y1="6" x2="22" x1="20" class="cls-1"/>
  <line stroke-width="2px" stroke-linejoin="round" stroke="#a846a0" fill="none" id="svg_14" y2="6" y1="6" x2="26" x1="24" class="cls-1"/>
 </g>
</svg>