<svg width="32" height="32" xmlns="http://www.w3.org/2000/svg">

 <g>
  <title>background</title>
  <rect fill="none" id="canvas_background" height="402" width="582" y="-1" x="-1"/>
 </g>
 <g>
  <title>Layer 1</title>
  <path stroke-miterlimit="10" stroke-linejoin="round" stroke-linecap="round" stroke-width="2" stroke="#a846a0" fill="none" id="svg_1" d="m29,12.5c0,-3 -2.5,-5.5 -5.5,-5.5c-0.2,0 -0.3,0 -0.5,0l0,-0.5c0,-1.9 -1.6,-3.5 -3.5,-3.5s-3.5,1.6 -3.5,3.5l0,19c0,1.9 1.6,3.5 3.5,3.5c1.8,0 3.2,-1.3 3.5,-3c2.8,-0.2 5,-2.6 5,-5.5c0,-1.4 -0.5,-2.6 -1.3,-3.6c1.4,-0.9 2.3,-2.6 2.3,-4.4z" class="st0"/>
  <path stroke-miterlimit="10" stroke-linejoin="round" stroke-linecap="round" stroke-width="2" stroke="#a846a0" fill="none" id="svg_2" d="m3,12.5c0,-3 2.5,-5.5 5.5,-5.5c0.2,0 0.3,0 0.5,0l0,-0.5c0,-1.9 1.6,-3.5 3.5,-3.5s3.5,1.6 3.5,3.5l0,19c0,1.9 -1.6,3.5 -3.5,3.5c-1.8,0 -3.2,-1.3 -3.5,-3c-2.8,-0.2 -5,-2.6 -5,-5.5c0,-1.4 0.5,-2.6 1.3,-3.6c-1.4,-0.9 -2.3,-2.6 -2.3,-4.4z" class="st0"/>
  <path stroke-miterlimit="10" stroke-linejoin="round" stroke-linecap="round" stroke-width="2" stroke="#a846a0" fill="none" id="svg_3" d="m23,16c2.8,0 5,2.2 5,5" class="st0"/>
  <path stroke-miterlimit="10" stroke-linejoin="round" stroke-linecap="round" stroke-width="2" stroke="#a846a0" fill="none" id="svg_4" d="m8.5,18c-3,0 -5.5,-2.5 -5.5,-5.5" class="st0"/>
  <path stroke-miterlimit="10" stroke-linejoin="round" stroke-linecap="round" stroke-width="2" stroke="#a846a0" fill="none" id="svg_5" d="m10.2,9.2c-0.7,-0.7 -1.2,-1.6 -1.2,-2.7" class="st0"/>
 </g>
</svg>