<svg width="818" height="391" viewBox="0 0 818 391" fill="none" xmlns="http://www.w3.org/2000/svg">
<rect width="818" height="391" fill="#F6F8FF"/>
<path d="M45.3846 341.417V333.833C45.3846 324.112 53.6992 316.333 64.6393 316.333C77.7676 326.056 90.8955 326.056 104.024 316.333C114.964 316.333 124.154 324.112 124.154 333.833V341.417H45.3846Z" fill="#A846A0"/>
<path d="M51.2125 318.862C54.2758 317.112 57.7765 316.139 61.4964 316.139C74.6243 325.862 87.7526 325.862 100.881 316.139C104.6 316.139 108.101 317.112 111.165 318.667C113.79 316.917 116.197 315.167 117.947 313.612C124.293 307.583 126.043 300.389 122.323 292.612C117.073 281.528 115.76 281.723 114.884 267.723C114.884 259.556 107.883 252.75 98.6927 252.167C98.6927 252.167 93.0041 246.334 81.1887 246.334C67.185 246.334 54.4946 253.139 51.2125 263.834C47.9305 274.723 51.8689 279 48.3681 287.167C44.4296 296.306 35.6775 303.5 45.5236 314.195C46.8364 315.556 48.8057 317.306 51.2125 318.862Z" fill="#A57939"/>
<path d="M60.7018 285.222C60.7018 300.778 71.2047 310.305 84.3326 310.305C97.4609 310.305 108.839 300.778 108.839 285.222C108.839 277.444 106.651 273.555 106.651 273.555L97.8986 265.778C97.8986 265.778 71.6423 269.667 62.8901 273.555C62.8901 273.555 60.7018 277.444 60.7018 285.222Z" fill="#FADCBC"/>
<path d="M45.3846 339.667V333.64C45.3846 323.917 53.6992 316.14 64.6393 316.14C77.7676 325.862 90.8955 325.862 104.024 316.14C114.964 316.14 124.154 323.917 124.154 333.64V339.667" stroke="black" stroke-width="0.5" stroke-linecap="round" stroke-linejoin="round"/>
<path d="M97.8961 283.278C97.8961 285.416 95.9269 287.166 93.5205 287.166C91.1136 287.166 89.1444 285.416 89.1444 283.278C89.1444 281.139 91.1136 279.389 93.5205 279.389C95.9269 279.389 97.8961 281.139 97.8961 283.278Z" fill="black"/>
<path d="M80.3941 283.278C80.3941 285.416 78.4249 287.166 76.018 287.166C73.6111 287.166 71.6418 285.416 71.6418 283.278C71.6418 281.139 73.6111 279.389 76.018 279.389C78.4249 279.389 80.3941 281.139 80.3941 283.278Z" fill="black"/>
<path d="M77.7691 297.278C81.9266 299.222 86.7399 299.222 90.8975 297.278" stroke="black" stroke-width="0.5" stroke-linecap="round" stroke-linejoin="round"/>
<path d="M50.1436 313.323C41.6505 301.368 46.3217 296.785 50.3559 287.421C53.7532 279.053 49.9313 274.471 53.1162 263.512C56.3011 252.554 68.6161 245.581 82.2053 245.581C93.6712 245.581 99.1914 251.558 99.1914 251.558C108.11 252.355 114.904 259.328 114.904 267.497C115.753 281.842 117.027 281.842 122.123 293C125.945 301.169 124.246 306.548 118.089 313.123" stroke="black" stroke-width="0.5" stroke-linecap="round" stroke-linejoin="round"/>
<path d="M242.308 331.387C247.723 331.387 252.105 327.323 252.105 322.355L252.154 277.194C252.154 272.226 247.723 268.161 242.308 268.161H163.538C158.123 268.161 153.692 272.226 153.692 277.194V322.355C153.692 327.323 158.123 331.387 163.538 331.387H143.846V340.419H262V331.387H242.308ZM163.538 277.194H242.308V322.355H163.538V277.194Z" fill="black"/>
<path d="M50 329.845C50 329.65 50.0635 329.523 50.1904 329.464C50.3271 329.406 50.4736 329.376 50.6299 329.376C50.6592 329.376 50.7129 329.381 50.791 329.391C50.8789 329.401 50.9326 329.406 50.9521 329.406C50.9814 329.708 51.0107 330.075 51.04 330.504C51.0693 330.924 51.1035 331.383 51.1426 331.881C51.1816 332.37 51.2305 332.877 51.2891 333.405C51.3477 333.932 51.4307 334.45 51.5381 334.957C51.6455 335.456 51.7773 335.934 51.9336 336.393C52.0898 336.842 52.2803 337.233 52.5049 337.565C52.5537 337.653 52.5977 337.721 52.6367 337.77C52.6855 337.809 52.7295 337.843 52.7686 337.873C52.8174 337.892 52.8711 337.907 52.9297 337.916C52.9883 337.916 53.0615 337.916 53.1494 337.916C53.5498 337.916 53.9307 337.848 54.292 337.711C54.6631 337.575 55.0293 337.423 55.3906 337.257C55.752 337.091 56.1182 336.94 56.4893 336.803C56.8604 336.666 57.251 336.598 57.6611 336.598C57.749 336.598 57.8613 336.598 57.998 336.598C58.1348 336.588 58.2617 336.593 58.3789 336.613C58.4961 336.632 58.5986 336.681 58.6865 336.759C58.7744 336.837 58.8184 336.955 58.8184 337.111C58.8184 337.257 58.6865 337.418 58.4229 337.594C58.1592 337.76 57.8223 337.931 57.4121 338.107C57.002 338.273 56.5527 338.439 56.0645 338.605C55.5859 338.771 55.1221 338.917 54.6729 339.044C54.2334 339.171 53.8428 339.274 53.501 339.352C53.1592 339.42 52.9346 339.455 52.8271 339.455C52.4756 339.455 52.1631 339.337 51.8896 339.103C51.626 338.859 51.3916 338.537 51.1865 338.136C50.9912 337.726 50.8252 337.262 50.6885 336.745C50.5518 336.217 50.4395 335.67 50.3516 335.104C50.2637 334.538 50.1953 333.976 50.1465 333.419C50.0977 332.863 50.0635 332.345 50.0439 331.867C50.0244 331.388 50.0098 330.968 50 330.607C50 330.246 50 329.992 50 329.845ZM59.3896 335.382C59.3896 334.855 59.4531 334.328 59.5801 333.8C59.707 333.273 59.9072 332.799 60.1807 332.379C60.4639 331.959 60.8252 331.618 61.2646 331.354C61.7139 331.09 62.2559 330.958 62.8906 330.958C63.252 330.958 63.5693 331.027 63.8428 331.164C64.1162 331.29 64.3457 331.461 64.5312 331.676C64.7168 331.891 64.8535 332.145 64.9414 332.438C65.0391 332.721 65.0879 333.019 65.0879 333.331C65.0879 333.83 64.9707 334.313 64.7363 334.782C64.5117 335.25 64.2041 335.665 63.8135 336.027C63.4326 336.378 62.9932 336.647 62.4951 336.832C61.9971 337.008 61.4893 337.047 60.9717 336.95C60.9814 337.233 61.0742 337.462 61.25 337.638C61.4355 337.804 61.6553 337.931 61.9092 338.019C62.1631 338.107 62.4268 338.165 62.7002 338.195C62.9736 338.214 63.2178 338.224 63.4326 338.224C63.6572 338.224 63.8672 338.205 64.0625 338.165C64.2578 338.126 64.4531 338.082 64.6484 338.034C64.8438 337.985 65.0391 337.941 65.2344 337.902C65.4395 337.863 65.6543 337.843 65.8789 337.843C65.9668 337.843 66.0547 337.848 66.1426 337.858C66.2305 337.868 66.3135 337.892 66.3916 337.931C66.4697 337.96 66.5332 338.014 66.582 338.092C66.6309 338.161 66.6553 338.248 66.6553 338.356C66.6553 338.541 66.5869 338.698 66.4502 338.825C66.3135 338.942 66.1377 339.044 65.9229 339.132C65.7178 339.22 65.4883 339.289 65.2344 339.337C64.9805 339.376 64.7314 339.411 64.4873 339.44C64.2529 339.459 64.0332 339.469 63.8281 339.469C63.6328 339.479 63.4863 339.484 63.3887 339.484C62.7637 339.484 62.2021 339.386 61.7041 339.191C61.2061 338.986 60.7861 338.707 60.4443 338.356C60.1025 337.995 59.8389 337.565 59.6533 337.067C59.4775 336.559 59.3896 335.998 59.3896 335.382ZM60.9424 334.43C60.9424 334.772 60.9863 335.021 61.0742 335.177C61.1719 335.333 61.4014 335.412 61.7627 335.412C62.0166 335.412 62.2656 335.368 62.5098 335.28C62.7539 335.182 62.9736 335.05 63.1689 334.884C63.374 334.718 63.5352 334.523 63.6523 334.298C63.7695 334.074 63.8281 333.83 63.8281 333.566C63.8281 333.419 63.8135 333.268 63.7842 333.112C63.7646 332.956 63.7158 332.814 63.6377 332.687C63.5596 332.55 63.457 332.443 63.3301 332.365C63.2129 332.277 63.0566 332.233 62.8613 332.233C62.5684 332.233 62.2998 332.301 62.0557 332.438C61.8213 332.565 61.6211 332.736 61.4551 332.951C61.2891 333.156 61.1621 333.39 61.0742 333.654C60.9863 333.908 60.9424 334.166 60.9424 334.43ZM67.2412 332.072C67.2412 332.042 67.2461 332.018 67.2559 331.998C67.2559 331.979 67.2607 331.955 67.2705 331.925C67.3096 331.876 67.3682 331.813 67.4463 331.735C67.5244 331.657 67.5732 331.618 67.5928 331.618H70.5371C70.5371 331.51 70.5225 331.339 70.4932 331.105C70.4639 330.871 70.4346 330.612 70.4053 330.329C70.3857 330.045 70.3809 329.752 70.3906 329.45C70.4004 329.137 70.4395 328.859 70.5078 328.615C70.5859 328.361 70.7031 328.156 70.8594 327.999C71.0254 327.833 71.2549 327.75 71.5479 327.75C71.5479 328.737 71.6162 329.528 71.7529 330.123C71.8896 330.719 72.0703 331.178 72.2949 331.5C72.5293 331.823 72.793 332.033 73.0859 332.13C73.3789 332.228 73.6768 332.272 73.9795 332.262C74.292 332.243 74.5947 332.194 74.8877 332.116C75.1807 332.038 75.4395 331.984 75.6641 331.955C75.8984 331.925 76.084 331.95 76.2207 332.028C76.3574 332.096 76.4258 332.267 76.4258 332.54C76.4258 332.746 76.377 332.892 76.2793 332.98C76.1914 333.068 76.0156 333.136 75.752 333.185C75.6738 333.195 75.542 333.214 75.3564 333.244C75.1807 333.263 74.9805 333.283 74.7559 333.302C74.5312 333.322 74.292 333.346 74.0381 333.375C73.7842 333.395 73.5449 333.415 73.3203 333.434C73.0957 333.454 72.8906 333.468 72.7051 333.478C72.5195 333.478 72.3828 333.478 72.2949 333.478C72.2949 333.527 72.29 333.61 72.2803 333.727C72.2705 333.844 72.2656 333.922 72.2656 333.961C72.2656 334.391 72.334 334.811 72.4707 335.221C72.6074 335.622 72.7539 336.022 72.9102 336.422C73.0762 336.823 73.2275 337.223 73.3643 337.623C73.501 338.024 73.5693 338.439 73.5693 338.869C73.5693 338.947 73.5596 339.03 73.54 339.118C73.5303 339.196 73.501 339.269 73.4521 339.337C73.4131 339.396 73.3496 339.44 73.2617 339.469C73.1836 339.508 73.0713 339.503 72.9248 339.455C72.5537 339.357 72.2754 339.147 72.0898 338.825C71.9141 338.502 71.7822 338.122 71.6943 337.682C71.6064 337.233 71.5479 336.759 71.5186 336.261C71.4893 335.763 71.4404 335.299 71.3721 334.87C71.3135 334.43 71.2158 334.059 71.0791 333.756C70.9424 333.444 70.7227 333.253 70.4199 333.185L67.5928 332.54C67.5537 332.54 67.4951 332.501 67.417 332.423C67.3389 332.335 67.29 332.272 67.2705 332.233C67.2607 332.213 67.2559 332.189 67.2559 332.16C67.2461 332.14 67.2412 332.111 67.2412 332.072ZM79.7949 338.795C79.9512 338.688 80.1367 338.551 80.3516 338.385C80.5762 338.209 80.8008 338.024 81.0254 337.829C81.25 337.633 81.46 337.428 81.6553 337.213C81.8506 336.998 82.002 336.793 82.1094 336.598C82.2266 336.393 82.2852 336.203 82.2852 336.027C82.2852 335.851 82.1973 335.705 82.0215 335.587C81.709 335.587 81.3672 335.602 80.9961 335.631C80.625 335.651 80.2539 335.661 79.8828 335.661C79.5117 335.651 79.1504 335.617 78.7988 335.558C78.457 335.499 78.1494 335.392 77.876 335.236C77.6025 335.08 77.3828 334.86 77.2168 334.577C77.0605 334.284 76.9824 333.913 76.9824 333.463C76.9824 332.936 77.0801 332.462 77.2754 332.042C77.4805 331.613 77.749 331.237 78.0811 330.915C78.4131 330.582 78.7842 330.294 79.1943 330.05C79.6143 329.796 80.0342 329.581 80.4541 329.406C80.708 329.474 80.9424 329.596 81.1572 329.772C81.3721 329.948 81.5576 330.143 81.7139 330.358C81.6455 330.573 81.5088 330.739 81.3037 330.856C81.1084 330.973 80.8789 331.076 80.6152 331.164C80.3613 331.251 80.0928 331.344 79.8096 331.442C79.5264 331.54 79.2676 331.671 79.0332 331.837C78.8086 331.994 78.6182 332.204 78.4619 332.467C78.3057 332.721 78.2275 333.058 78.2275 333.478C78.2275 333.79 78.3057 334.02 78.4619 334.166C78.6182 334.313 78.8232 334.415 79.0771 334.474C79.3311 334.523 79.6191 334.542 79.9414 334.533C80.2637 334.513 80.5908 334.489 80.9229 334.459C81.2646 334.43 81.5967 334.415 81.9189 334.415C82.2412 334.406 82.5293 334.445 82.7832 334.533C83.0371 334.611 83.2373 334.743 83.3838 334.928C83.54 335.114 83.6182 335.387 83.6182 335.748C83.6182 335.905 83.5645 336.105 83.457 336.349C83.3594 336.593 83.2227 336.857 83.0469 337.14C82.8809 337.414 82.6807 337.687 82.4463 337.96C82.2217 338.234 81.9824 338.483 81.7285 338.707C81.4844 338.922 81.2354 339.103 80.9814 339.249C80.7373 339.386 80.5078 339.455 80.293 339.455C80.0879 339.455 79.9512 339.381 79.8828 339.235C79.8242 339.088 79.7949 338.942 79.7949 338.795ZM90.957 334.43C90.957 334.098 91.001 333.737 91.0889 333.346C91.1865 332.956 91.3184 332.565 91.4844 332.174C91.6504 331.774 91.8506 331.388 92.085 331.017C92.3193 330.636 92.583 330.304 92.876 330.021C93.1689 329.728 93.4863 329.498 93.8281 329.332C94.1699 329.157 94.5312 329.069 94.9121 329.069C95.2246 329.069 95.5176 329.113 95.791 329.201C96.0645 329.279 96.2988 329.401 96.4941 329.567C96.6895 329.733 96.8408 329.943 96.9482 330.197C97.0654 330.441 97.124 330.734 97.124 331.076C96.9092 331.076 96.7334 331.022 96.5967 330.915C96.4697 330.797 96.3477 330.67 96.2305 330.534C96.123 330.397 96.001 330.275 95.8643 330.167C95.7373 330.06 95.5713 330.006 95.3662 330.006C95.0635 330.006 94.7705 330.084 94.4873 330.241C94.2139 330.397 93.9551 330.607 93.7109 330.871C93.4766 331.134 93.2666 331.432 93.0811 331.764C92.9053 332.096 92.749 332.433 92.6123 332.775C92.4854 333.107 92.3828 333.434 92.3047 333.756C92.2363 334.079 92.2021 334.357 92.2021 334.591C92.2021 335.099 92.2754 335.578 92.4219 336.027C92.5781 336.466 92.7979 336.852 93.0811 337.184C93.3643 337.506 93.7158 337.76 94.1357 337.946C94.5557 338.131 95.0342 338.224 95.5713 338.224C95.9131 338.224 96.2354 338.175 96.5381 338.078C96.8506 337.97 97.1484 337.858 97.4316 337.741C97.7246 337.614 98.0127 337.497 98.2959 337.389C98.5791 337.282 98.8623 337.228 99.1455 337.228C99.1846 337.228 99.2383 337.233 99.3066 337.243C99.3848 337.243 99.4531 337.252 99.5117 337.272C99.5801 337.291 99.6387 337.326 99.6875 337.374C99.7363 337.414 99.7607 337.477 99.7607 337.565C99.7607 337.916 99.624 338.214 99.3506 338.458C99.0869 338.703 98.7695 338.903 98.3984 339.059C98.0273 339.206 97.6416 339.313 97.2412 339.381C96.8408 339.45 96.5137 339.484 96.2598 339.484C95.5176 339.484 94.8242 339.367 94.1797 339.132C93.5352 338.888 92.9736 338.546 92.4951 338.107C92.0166 337.667 91.6406 337.14 91.3672 336.525C91.0938 335.9 90.957 335.202 90.957 334.43ZM100.376 336.481C100.376 335.875 100.518 335.314 100.801 334.796C101.084 334.269 101.455 333.82 101.914 333.449C102.383 333.068 102.905 332.77 103.481 332.555C104.067 332.34 104.658 332.233 105.254 332.233C105.586 332.233 105.879 332.34 106.133 332.555C106.396 332.77 106.616 333.034 106.792 333.346C106.968 333.649 107.1 333.971 107.188 334.313C107.285 334.655 107.334 334.953 107.334 335.206C107.334 335.753 107.202 336.286 106.938 336.803C106.675 337.311 106.333 337.765 105.913 338.165C105.493 338.556 105.02 338.873 104.492 339.118C103.965 339.362 103.438 339.484 102.91 339.484C102.441 339.484 102.046 339.406 101.724 339.249C101.401 339.083 101.143 338.869 100.947 338.605C100.752 338.331 100.605 338.014 100.508 337.653C100.42 337.282 100.376 336.891 100.376 336.481ZM101.621 336.627C101.621 336.881 101.641 337.106 101.68 337.301C101.729 337.487 101.807 337.648 101.914 337.785C102.031 337.921 102.183 338.029 102.368 338.107C102.554 338.175 102.783 338.209 103.057 338.209C103.418 338.209 103.779 338.112 104.141 337.916C104.502 337.711 104.824 337.457 105.107 337.155C105.4 336.842 105.635 336.5 105.811 336.129C105.986 335.758 106.074 335.397 106.074 335.045C106.074 334.889 106.06 334.718 106.03 334.533C106.001 334.347 105.952 334.176 105.884 334.02C105.815 333.864 105.718 333.732 105.591 333.624C105.464 333.517 105.303 333.463 105.107 333.463C104.932 333.463 104.722 333.522 104.478 333.639C104.243 333.756 103.994 333.908 103.73 334.093C103.477 334.279 103.223 334.489 102.969 334.723C102.725 334.957 102.5 335.192 102.295 335.426C102.09 335.661 101.924 335.885 101.797 336.1C101.68 336.315 101.621 336.491 101.621 336.627ZM107.583 337.726C107.583 337.16 107.725 336.657 108.008 336.217C108.291 335.778 108.643 335.397 109.062 335.075C109.482 334.743 109.937 334.464 110.425 334.24C110.913 334.005 111.367 333.815 111.787 333.668C112.207 333.512 112.559 333.39 112.842 333.302C113.125 333.205 113.267 333.126 113.267 333.068C113.267 332.726 113.247 332.394 113.208 332.072C113.179 331.74 113.145 331.408 113.105 331.076C113.066 330.744 113.027 330.416 112.988 330.094C112.959 329.762 112.944 329.435 112.944 329.113V328.161C113.345 328.014 113.628 328.029 113.794 328.205C113.97 328.38 113.999 328.683 113.882 329.113C113.921 329.328 113.975 329.665 114.043 330.123C114.111 330.582 114.185 331.1 114.263 331.676C114.351 332.252 114.438 332.858 114.526 333.493C114.624 334.127 114.712 334.738 114.79 335.324C114.878 335.9 114.951 336.417 115.01 336.876C115.068 337.326 115.112 337.663 115.142 337.887C115.151 337.936 115.161 338.034 115.171 338.18C115.181 338.317 115.186 338.468 115.186 338.634C115.195 338.79 115.2 338.937 115.2 339.074C115.21 339.21 115.215 339.308 115.215 339.367C114.844 339.367 114.59 339.352 114.453 339.323C114.326 339.293 114.243 339.235 114.204 339.147C114.175 339.059 114.16 338.932 114.16 338.766C114.16 338.6 114.111 338.371 114.014 338.078C113.652 338.361 113.311 338.595 112.988 338.781C112.666 338.966 112.344 339.118 112.021 339.235C111.699 339.342 111.372 339.415 111.04 339.455C110.718 339.503 110.371 339.528 110 339.528C109.688 339.528 109.385 339.503 109.092 339.455C108.809 339.396 108.555 339.298 108.33 339.162C108.105 339.025 107.925 338.839 107.788 338.605C107.651 338.371 107.583 338.078 107.583 337.726ZM108.857 337.418C108.857 337.575 108.892 337.702 108.96 337.799C109.028 337.897 109.116 337.98 109.224 338.048C109.331 338.117 109.443 338.165 109.561 338.195C109.688 338.214 109.81 338.224 109.927 338.224C110.269 338.224 110.635 338.161 111.025 338.034C111.426 337.897 111.792 337.711 112.124 337.477C112.466 337.233 112.744 336.945 112.959 336.613C113.184 336.281 113.296 335.919 113.296 335.529C113.296 335.226 113.242 335.016 113.135 334.899C113.027 334.782 112.822 334.723 112.52 334.723C112.207 334.723 111.841 334.796 111.421 334.943C111.011 335.089 110.61 335.285 110.22 335.529C109.839 335.773 109.517 336.061 109.253 336.393C108.989 336.715 108.857 337.057 108.857 337.418ZM116.079 335.382C116.079 334.855 116.143 334.328 116.27 333.8C116.396 333.273 116.597 332.799 116.87 332.379C117.153 331.959 117.515 331.618 117.954 331.354C118.403 331.09 118.945 330.958 119.58 330.958C119.941 330.958 120.259 331.027 120.532 331.164C120.806 331.29 121.035 331.461 121.221 331.676C121.406 331.891 121.543 332.145 121.631 332.438C121.729 332.721 121.777 333.019 121.777 333.331C121.777 333.83 121.66 334.313 121.426 334.782C121.201 335.25 120.894 335.665 120.503 336.027C120.122 336.378 119.683 336.647 119.185 336.832C118.687 337.008 118.179 337.047 117.661 336.95C117.671 337.233 117.764 337.462 117.939 337.638C118.125 337.804 118.345 337.931 118.599 338.019C118.853 338.107 119.116 338.165 119.39 338.195C119.663 338.214 119.907 338.224 120.122 338.224C120.347 338.224 120.557 338.205 120.752 338.165C120.947 338.126 121.143 338.082 121.338 338.034C121.533 337.985 121.729 337.941 121.924 337.902C122.129 337.863 122.344 337.843 122.568 337.843C122.656 337.843 122.744 337.848 122.832 337.858C122.92 337.868 123.003 337.892 123.081 337.931C123.159 337.96 123.223 338.014 123.271 338.092C123.32 338.161 123.345 338.248 123.345 338.356C123.345 338.541 123.276 338.698 123.14 338.825C123.003 338.942 122.827 339.044 122.612 339.132C122.407 339.22 122.178 339.289 121.924 339.337C121.67 339.376 121.421 339.411 121.177 339.44C120.942 339.459 120.723 339.469 120.518 339.469C120.322 339.479 120.176 339.484 120.078 339.484C119.453 339.484 118.892 339.386 118.394 339.191C117.896 338.986 117.476 338.707 117.134 338.356C116.792 337.995 116.528 337.565 116.343 337.067C116.167 336.559 116.079 335.998 116.079 335.382ZM117.632 334.43C117.632 334.772 117.676 335.021 117.764 335.177C117.861 335.333 118.091 335.412 118.452 335.412C118.706 335.412 118.955 335.368 119.199 335.28C119.443 335.182 119.663 335.05 119.858 334.884C120.063 334.718 120.225 334.523 120.342 334.298C120.459 334.074 120.518 333.83 120.518 333.566C120.518 333.419 120.503 333.268 120.474 333.112C120.454 332.956 120.405 332.814 120.327 332.687C120.249 332.55 120.146 332.443 120.02 332.365C119.902 332.277 119.746 332.233 119.551 332.233C119.258 332.233 118.989 332.301 118.745 332.438C118.511 332.565 118.311 332.736 118.145 332.951C117.979 333.156 117.852 333.39 117.764 333.654C117.676 333.908 117.632 334.166 117.632 334.43Z" fill="#23CECB"/>
</svg>
